<svg width="18" height="18" viewBox="0 0 18 18" fill="none" xmlns="http://www.w3.org/2000/svg">
    <g clip-path="url(#clip0)">
        <path d="M13.1786 1.60712H4.82143H0V5.14283H18V1.60712H13.1786Z" fill="#61B872"/>
        <path d="M6.10709 3.53571C6.46213 3.53571 6.74995 3.2479 6.74995 2.89286C6.74995 2.53782 6.46213 2.25 6.10709 2.25C5.75205 2.25 5.46423 2.53782 5.46423 2.89286C5.46423 3.2479 5.75205 3.53571 6.10709 3.53571Z" fill="#50965C"/>
        <path d="M8.03568 3.53571C8.39072 3.53571 8.67854 3.2479 8.67854 2.89286C8.67854 2.53782 8.39072 2.25 8.03568 2.25C7.68064 2.25 7.39282 2.53782 7.39282 2.89286C7.39282 3.2479 7.68064 3.53571 8.03568 3.53571Z" fill="#50965C"/>
        <path d="M9.96427 3.53571C10.3193 3.53571 10.6071 3.2479 10.6071 2.89286C10.6071 2.53782 10.3193 2.25 9.96427 2.25C9.60923 2.25 9.32141 2.53782 9.32141 2.89286C9.32141 3.2479 9.60923 3.53571 9.96427 3.53571Z" fill="#50965C"/>
        <path d="M11.8929 3.53571C12.2479 3.53571 12.5357 3.2479 12.5357 2.89286C12.5357 2.53782 12.2479 2.25 11.8929 2.25C11.5378 2.25 11.25 2.53782 11.25 2.89286C11.25 3.2479 11.5378 3.53571 11.8929 3.53571Z" fill="#50965C"/>
        <path d="M18 5.14288H0V18H18V5.14288Z" fill="#EDEADA"/>
        <path d="M6.75002 8.03574C6.92754 8.03574 7.07145 7.89183 7.07145 7.71431C7.07145 7.53679 6.92754 7.39288 6.75002 7.39288C6.5725 7.39288 6.42859 7.53679 6.42859 7.71431C6.42859 7.89183 6.5725 8.03574 6.75002 8.03574Z" fill="#424A60"/>
        <path d="M9.00002 8.03574C9.17754 8.03574 9.32145 7.89183 9.32145 7.71431C9.32145 7.53679 9.17754 7.39288 9.00002 7.39288C8.8225 7.39288 8.67859 7.53679 8.67859 7.71431C8.67859 7.89183 8.8225 8.03574 9.00002 8.03574Z" fill="#424A60"/>
        <path d="M11.25 8.03574C11.4275 8.03574 11.5714 7.89183 11.5714 7.71431C11.5714 7.53679 11.4275 7.39288 11.25 7.39288C11.0725 7.39288 10.9286 7.53679 10.9286 7.71431C10.9286 7.89183 11.0725 8.03574 11.25 8.03574Z" fill="#424A60"/>
        <path d="M13.5 8.03574C13.6775 8.03574 13.8214 7.89183 13.8214 7.71431C13.8214 7.53679 13.6775 7.39288 13.5 7.39288C13.3225 7.39288 13.1786 7.53679 13.1786 7.71431C13.1786 7.89183 13.3225 8.03574 13.5 8.03574Z" fill="#424A60"/>
        <path d="M15.75 8.03574C15.9275 8.03574 16.0714 7.89183 16.0714 7.71431C16.0714 7.53679 15.9275 7.39288 15.75 7.39288C15.5725 7.39288 15.4286 7.53679 15.4286 7.71431C15.4286 7.89183 15.5725 8.03574 15.75 8.03574Z" fill="#424A60"/>
        <path d="M2.25002 10.6072C2.42754 10.6072 2.57145 10.4633 2.57145 10.2858C2.57145 10.1083 2.42754 9.96436 2.25002 9.96436C2.0725 9.96436 1.92859 10.1083 1.92859 10.2858C1.92859 10.4633 2.0725 10.6072 2.25002 10.6072Z" fill="#424A60"/>
        <path d="M4.50002 10.6072C4.67754 10.6072 4.82145 10.4633 4.82145 10.2858C4.82145 10.1083 4.67754 9.96436 4.50002 9.96436C4.3225 9.96436 4.17859 10.1083 4.17859 10.2858C4.17859 10.4633 4.3225 10.6072 4.50002 10.6072Z" fill="#424A60"/>
        <path d="M6.75002 10.6072C6.92754 10.6072 7.07145 10.4633 7.07145 10.2858C7.07145 10.1083 6.92754 9.96436 6.75002 9.96436C6.5725 9.96436 6.42859 10.1083 6.42859 10.2858C6.42859 10.4633 6.5725 10.6072 6.75002 10.6072Z" fill="#424A60"/>
        <path d="M9.00002 10.6072C9.17754 10.6072 9.32145 10.4633 9.32145 10.2858C9.32145 10.1083 9.17754 9.96436 9.00002 9.96436C8.8225 9.96436 8.67859 10.1083 8.67859 10.2858C8.67859 10.4633 8.8225 10.6072 9.00002 10.6072Z" fill="#424A60"/>
        <path d="M11.25 10.6072C11.4275 10.6072 11.5714 10.4633 11.5714 10.2858C11.5714 10.1083 11.4275 9.96436 11.25 9.96436C11.0725 9.96436 10.9286 10.1083 10.9286 10.2858C10.9286 10.4633 11.0725 10.6072 11.25 10.6072Z" fill="#424A60"/>
        <path d="M13.5 10.6072C13.6775 10.6072 13.8214 10.4633 13.8214 10.2858C13.8214 10.1083 13.6775 9.96436 13.5 9.96436C13.3225 9.96436 13.1786 10.1083 13.1786 10.2858C13.1786 10.4633 13.3225 10.6072 13.5 10.6072Z" fill="#424A60"/>
        <path d="M15.75 10.6072C15.9275 10.6072 16.0714 10.4633 16.0714 10.2858C16.0714 10.1083 15.9275 9.96436 15.75 9.96436C15.5725 9.96436 15.4286 10.1083 15.4286 10.2858C15.4286 10.4633 15.5725 10.6072 15.75 10.6072Z" fill="#424A60"/>
        <path d="M2.25002 12.8572C2.42754 12.8572 2.57145 12.7133 2.57145 12.5358C2.57145 12.3583 2.42754 12.2144 2.25002 12.2144C2.0725 12.2144 1.92859 12.3583 1.92859 12.5358C1.92859 12.7133 2.0725 12.8572 2.25002 12.8572Z" fill="#424A60"/>
        <path d="M4.50002 12.8572C4.67754 12.8572 4.82145 12.7133 4.82145 12.5358C4.82145 12.3583 4.67754 12.2144 4.50002 12.2144C4.3225 12.2144 4.17859 12.3583 4.17859 12.5358C4.17859 12.7133 4.3225 12.8572 4.50002 12.8572Z" fill="#424A60"/>
        <path d="M6.75002 12.8572C6.92754 12.8572 7.07145 12.7133 7.07145 12.5358C7.07145 12.3583 6.92754 12.2144 6.75002 12.2144C6.5725 12.2144 6.42859 12.3583 6.42859 12.5358C6.42859 12.7133 6.5725 12.8572 6.75002 12.8572Z" fill="#424A60"/>
        <path d="M9.00002 12.8572C9.17754 12.8572 9.32145 12.7133 9.32145 12.5358C9.32145 12.3583 9.17754 12.2144 9.00002 12.2144C8.8225 12.2144 8.67859 12.3583 8.67859 12.5358C8.67859 12.7133 8.8225 12.8572 9.00002 12.8572Z" fill="#424A60"/>
        <path d="M11.25 12.8572C11.4275 12.8572 11.5714 12.7133 11.5714 12.5358C11.5714 12.3583 11.4275 12.2144 11.25 12.2144C11.0725 12.2144 10.9286 12.3583 10.9286 12.5358C10.9286 12.7133 11.0725 12.8572 11.25 12.8572Z" fill="#424A60"/>
        <path d="M13.5 12.8572C13.6775 12.8572 13.8214 12.7133 13.8214 12.5358C13.8214 12.3583 13.6775 12.2144 13.5 12.2144C13.3225 12.2144 13.1786 12.3583 13.1786 12.5358C13.1786 12.7133 13.3225 12.8572 13.5 12.8572Z" fill="#424A60"/>
        <path d="M15.75 12.8572C15.9275 12.8572 16.0714 12.7133 16.0714 12.5358C16.0714 12.3583 15.9275 12.2144 15.75 12.2144C15.5725 12.2144 15.4286 12.3583 15.4286 12.5358C15.4286 12.7133 15.5725 12.8572 15.75 12.8572Z" fill="#424A60"/>
        <path d="M2.25002 15.4286C2.42754 15.4286 2.57145 15.2847 2.57145 15.1072C2.57145 14.9297 2.42754 14.7858 2.25002 14.7858C2.0725 14.7858 1.92859 14.9297 1.92859 15.1072C1.92859 15.2847 2.0725 15.4286 2.25002 15.4286Z" fill="#424A60"/>
        <path d="M4.50002 15.4286C4.67754 15.4286 4.82145 15.2847 4.82145 15.1072C4.82145 14.9297 4.67754 14.7858 4.50002 14.7858C4.3225 14.7858 4.17859 14.9297 4.17859 15.1072C4.17859 15.2847 4.3225 15.4286 4.50002 15.4286Z" fill="#424A60"/>
        <path d="M6.75002 15.4286C6.92754 15.4286 7.07145 15.2847 7.07145 15.1072C7.07145 14.9297 6.92754 14.7858 6.75002 14.7858C6.5725 14.7858 6.42859 14.9297 6.42859 15.1072C6.42859 15.2847 6.5725 15.4286 6.75002 15.4286Z" fill="#424A60"/>
        <path d="M9.00002 15.4286C9.17754 15.4286 9.32145 15.2847 9.32145 15.1072C9.32145 14.9297 9.17754 14.7858 9.00002 14.7858C8.8225 14.7858 8.67859 14.9297 8.67859 15.1072C8.67859 15.2847 8.8225 15.4286 9.00002 15.4286Z" fill="#424A60"/>
        <path d="M11.25 15.4286C11.4275 15.4286 11.5714 15.2847 11.5714 15.1072C11.5714 14.9297 11.4275 14.7858 11.25 14.7858C11.0725 14.7858 10.9286 14.9297 10.9286 15.1072C10.9286 15.2847 11.0725 15.4286 11.25 15.4286Z" fill="#424A60"/>
        <path d="M11.8929 0C11.5297 0 11.1979 0.125679 10.9286 0.329464C11.1002 0.459643 11.2433 0.622607 11.3513 0.81C11.5059 0.704571 11.6923 0.642857 11.8929 0.642857C12.4245 0.642857 12.8572 1.0755 12.8572 1.60714C12.8572 2.13879 12.4245 2.57143 11.8929 2.57143C11.7151 2.57143 11.5714 2.71511 11.5714 2.89286C11.5714 3.07061 11.7151 3.21429 11.8929 3.21429C12.7791 3.21429 13.5 2.49332 13.5 1.60714C13.5 0.720964 12.7791 0 11.8929 0Z" fill="#D8A852"/>
        <path d="M10.5059 0.810059C10.3697 1.04599 10.2858 1.31567 10.2858 1.6072H10.9286C10.9286 1.27613 10.7608 0.983951 10.5059 0.810059Z" fill="#A37F46"/>
        <path d="M8.57736 0.810059C8.44107 1.04599 8.35718 1.31567 8.35718 1.6072H9.00004C9.00004 1.27613 8.83225 0.983951 8.57736 0.810059Z" fill="#A37F46"/>
        <path d="M11.3512 0.81C11.2432 0.622607 11.1002 0.459643 10.9286 0.329464C10.6592 0.125679 10.3275 0 9.96429 0C9.60107 0 9.26936 0.125679 9 0.329464C9.17164 0.459643 9.31468 0.622607 9.42268 0.81C9.57729 0.704571 9.76371 0.642857 9.96429 0.642857C10.1649 0.642857 10.3513 0.704571 10.5059 0.81C10.7608 0.983893 10.9286 1.27607 10.9286 1.60714C10.9286 2.13879 10.4959 2.57143 9.96429 2.57143C9.78654 2.57143 9.64286 2.71511 9.64286 2.89286C9.64286 3.07061 9.78654 3.21429 9.96429 3.21429C10.8505 3.21429 11.5714 2.49332 11.5714 1.60714C11.5714 1.31561 11.4875 1.04593 11.3512 0.81Z" fill="#D8A852"/>
        <path d="M6.64877 0.810059C6.51248 1.04599 6.42859 1.31567 6.42859 1.6072H7.07145C7.07145 1.27613 6.90366 0.983951 6.64877 0.810059Z" fill="#A37F46"/>
        <path d="M9.42266 0.81C9.31466 0.622607 9.17163 0.459643 8.99998 0.329464C8.73063 0.125679 8.39891 0 8.0357 0C7.67248 0 7.34077 0.125679 7.07141 0.329464C7.24305 0.459643 7.38609 0.622607 7.49409 0.81C7.6487 0.704571 7.83513 0.642857 8.0357 0.642857C8.23627 0.642857 8.4227 0.704571 8.5773 0.81C8.8322 0.983893 8.99998 1.27607 8.99998 1.60714C8.99998 2.13879 8.56734 2.57143 8.0357 2.57143C7.85795 2.57143 7.71427 2.71511 7.71427 2.89286C7.71427 3.07061 7.85795 3.21429 8.0357 3.21429C8.92188 3.21429 9.64284 2.49332 9.64284 1.60714C9.64284 1.31561 9.55895 1.04593 9.42266 0.81Z" fill="#D8A852"/>
        <path d="M7.49411 0.81C7.38611 0.622607 7.24307 0.459643 7.07143 0.329464C6.80207 0.125679 6.47036 0 6.10714 0C5.22096 0 4.5 0.720964 4.5 1.60714H5.14286C5.14286 1.0755 5.5755 0.642857 6.10714 0.642857C6.30771 0.642857 6.49414 0.704571 6.64875 0.81C6.90364 0.983893 7.07143 1.27607 7.07143 1.60714C7.07143 2.13879 6.63879 2.57143 6.10714 2.57143C5.92939 2.57143 5.78571 2.71511 5.78571 2.89286C5.78571 3.07061 5.92939 3.21429 6.10714 3.21429C6.99332 3.21429 7.71429 2.49332 7.71429 1.60714C7.71429 1.31561 7.63039 1.04593 7.49411 0.81Z" fill="#D8A852"/>
    </g>
    <defs>
        <clipPath id="clip0">
            <rect width="18" height="18" fill="white"/>
        </clipPath>
    </defs>
</svg>
