<svg width="18" height="18" viewBox="0 0 18 18" fill="none" xmlns="http://www.w3.org/2000/svg">
<path d="M15.9017 17.4001H11.702V12.9008C11.702 11.4099 10.4933 10.2013 9.00221 10.2013C7.51116 10.2013 6.30239 11.4099 6.30239 12.9008V17.4001H2.10268V9.30154V7.62169L9.00221 0.722817L15.9017 7.62169V9.2955V17.4001Z" fill="#50965C"/>
<path fill-rule="evenodd" clip-rule="evenodd" d="M9.21429 0.0878201L17.9167 8.7894L17.9158 8.7873C18.0281 8.90357 18.0281 9.08785 17.9158 9.20408C17.8592 9.26263 17.7846 9.2932 17.7092 9.2955C17.7031 9.29568 17.6969 9.29568 17.6908 9.2955C17.6189 9.2933 17.5475 9.26536 17.4916 9.21143L16.5017 8.22159V9.2955V17.7C16.5017 17.8657 16.3674 18 16.2017 18H11.702H11.1021V17.4001V12.9008C11.1021 11.7412 10.1619 10.8012 9.00221 10.8012C7.84249 10.8012 6.90235 11.7412 6.90235 12.9008V17.4001V18H6.30239H1.8027C1.63704 18 1.50272 17.8657 1.50272 17.7V9.30154V8.22159L0.512787 9.21353C0.456517 9.26991 0.38341 9.29925 0.309617 9.30154C0.30336 9.30174 0.297099 9.30174 0.290842 9.30154C0.217269 9.29926 0.144375 9.27008 0.0881661 9.21398C-0.0292009 9.09685 -0.0294259 8.90676 0.0877161 8.7894L8.79012 0.0878201C8.90726 -0.0292733 9.09715 -0.0292733 9.21429 0.0878201ZM11.702 17.4001H15.9017V9.2955V7.62169L9.00221 0.722817L2.10268 7.62169V9.30154V17.4001H6.30239V12.9008C6.30239 11.4099 7.51116 10.2013 9.00221 10.2013C10.4933 10.2013 11.702 11.4099 11.702 12.9008V17.4001Z" fill="#50965C"/>
<path d="M16.5017 8.22159V9.2955H17.6908C17.6189 9.2933 17.5475 9.26536 17.4916 9.21143L16.5017 8.22159Z" fill="#50965C"/>
<path d="M1.50272 8.22159L0.512787 9.21353C0.456517 9.26991 0.38341 9.29925 0.309617 9.30154H1.50272V8.22159Z" fill="#50965C"/>
</svg>
