<svg width="21" height="27" viewBox="0 0 21 27" fill="none" xmlns="http://www.w3.org/2000/svg">
<path d="M10.2319 13.2048C13.1555 13.2048 15.5257 10.2488 15.5257 6.60243C15.5257 2.95596 14.7475 0 10.2319 0C5.71632 0 4.93799 2.95596 4.93799 6.60243C4.93799 10.2488 7.30822 13.2048 10.2319 13.2048Z" fill="#50965C"/>
<path d="M0.233004 23.2859C0.232077 23.0635 0.23115 23.2233 0.233004 23.2859V23.2859Z" fill="#50965C"/>
<path d="M20.2305 23.4595C20.2334 23.3987 20.2315 23.0372 20.2305 23.4595V23.4595Z" fill="#50965C"/>
<path d="M20.2192 23.0193C20.1211 16.6672 19.3132 14.8572 13.1306 13.7114C13.1306 13.7114 12.2603 14.8501 10.2319 14.8501C8.20338 14.8501 7.33294 13.7114 7.33294 13.7114C1.21785 14.8447 0.360779 16.6278 0.248086 22.8129C0.238845 23.318 0.234563 23.3445 0.23291 23.2859C0.233286 23.3957 0.233736 23.5989 0.233736 23.9532C0.233736 23.9532 1.70566 27.0001 10.2319 27.0001C18.7579 27.0001 20.23 23.9532 20.23 23.9532C20.23 23.7256 20.2301 23.5673 20.2304 23.4596C20.2287 23.4958 20.2254 23.4256 20.2192 23.0193Z" fill="#50965C"/>
</svg>
